<?xml version="1.0" encoding="UTF-8"?> <svg xmlns="http://www.w3.org/2000/svg" xmlns:xlink="http://www.w3.org/1999/xlink" version="1.1" id="Vrstva_1" x="0px" y="0px" viewBox="0 0 500 195" style="enable-background:new 0 0 500 195;" xml:space="preserve"> <style type="text/css"> .st0{fill:#090A0B;} .st1{fill:#FFFFFF;} .st2{fill:#FFD313;} </style> <g> <g> <g> <path class="st0" d="M269.3,69c0.8,0.7,1,1.1,0.4,1.9l-10,13.1c-0.8,1.3-1,2.2,0.1,3.6l10.6,13.7c0.6,0.7,0.3,1.3-0.4,1.9l-3,2.2 c-0.5,0.4-1,0.3-1.6-0.3l-10.6-14c-0.8-1-2.4-0.4-2.4,0.8v11.2c0,0.9-0.4,1.6-1.5,1.6h-3.4c-0.9,0-1.3-0.7-1.3-1.6V69.4 c0-1.1,0.4-1.8,1.3-1.8h3.4c1.1,0,1.5,0.7,1.5,1.6V80c0,1.4,1.5,1.8,2.3,0.8l10.3-13.8c0.4-0.6,1-0.7,1.5-0.2L269.3,69z"></path> <path class="st0" d="M294.2,67.3c0.2-0.6,0.8-0.8,1.5-0.6l3.5,1.1c0.7,0.3,1,0.9,0.7,1.7l-10.3,33.9c-0.2,0.8-0.7,1.3-1.6,1.3 H285c-0.8,0-1.4-0.4-1.6-1.4L273,69.6c-0.2-0.9,0-1.4,0.7-1.6l3.6-1.3c0.8-0.2,1.3,0,1.5,0.7l7.1,24.4c0.1,0.5,0.4,0.8,0.6,0.8 c0.2,0,0.4-0.3,0.6-0.8L294.2,67.3z"></path> <path class="st0" d="M322.5,105.6c-0.7,0.2-1.3-0.1-1.6-0.7l-1.4-5.1c-0.1-0.6-0.6-0.9-1.3-0.9h-9.4c-0.7,0-1,0.3-1.2,0.9 l-1.5,5.4c-0.2,0.5-0.7,0.7-1.5,0.5l-3.8-1.3c-0.7-0.1-1-0.7-0.7-1.6L310.4,69c0.3-1,0.8-1.4,1.6-1.4h3c0.8,0,1.3,0.4,1.6,1.4 l10.3,33.7c0.2,1-0.1,1.5-0.7,1.7L322.5,105.6z M314.3,79.8c-0.2-1-1.3-1.1-1.6,0l-3,11.8c-0.2,1,0.4,1.5,1,1.5h5.8 c0.6,0,1.2-0.4,1-1.3L314.3,79.8z"></path> <path class="st0" d="M338.5,96.5c0,1.3,0.7,2,1.9,2h10.9c1.1,0,1.6,0.5,1.6,1.6v3.1c0,0.8-0.5,1.6-1.6,1.6h-17.6 c-1,0-1.4-0.7-1.4-1.8V69.5c0-1.3,0.6-1.9,1.7-1.9h3c1,0,1.6,0.7,1.6,1.5V96.5z"></path> <path class="st0" d="M374.5,67.6c1.1,0,1.6,0.4,1.6,1.4v2.9c0,1-0.4,1.6-1.4,1.6h-2.9c-1.1,0-2,0.9-2,2v21.4c0,0.9,0.8,2,2.1,2h3 c0.8,0,1.3,0.4,1.3,1.3v3.3c0,0.8-0.4,1.3-1.3,1.3h-16.1c-1,0-1.4-0.7-1.4-1.5v-3c0-1,0.5-1.4,1.5-1.4h2.8c1.4,0,2.1-0.9,2.1-2 V75.7c0-1.2-0.7-2.2-2.2-2.2h-2.8c-0.7,0-1.3-0.4-1.3-1.6v-2.8c0.1-1,0.6-1.6,1.6-1.6H374.5z"></path> <path class="st0" d="M389.3,104.8c-0.9,0-1.2-0.7-1.2-1.3V75.4c0-1.3-0.5-1.9-1.6-1.9h-6c-0.7,0-1.4-0.4-1.4-1.3v-3.3 c0-0.8,0.5-1.3,1.3-1.3h21.3c1,0,1.4,0.4,1.4,1.3v3.3c0,0.8-0.4,1.3-1.4,1.3h-5.8c-1.1,0-1.7,0.6-1.7,1.9v28.1 c0,0.9-0.6,1.3-1.2,1.3H389.3z"></path> <path class="st0" d="M427.6,69.4c0-1.1,0.4-1.8,1.3-1.8h3.3c1,0,1.4,0.5,1.4,1.6v34.1c0,1.1-0.3,1.6-1.5,1.6h-3.4 c-1.1,0-1.8-0.3-2.6-1.7l-11.3-20.8c-0.8-1.3-1.9-0.7-1.9,0.4v20.6c0,1-0.4,1.5-1.4,1.5h-3.5c-0.8,0-1.3-0.5-1.3-1.6V69.4 c0-1.1,0.2-1.8,1.3-1.8h3.4c1.1,0,1.9,0.7,2.4,1.6l11.9,22.2c0.8,1.2,1.8,0.7,1.8-0.1V69.4z"></path> <path class="st0" d="M442.1,55.9c-1.1-0.8-1.1-1.3-0.4-2.2l0.6-0.8c0.8-0.8,1.3-0.6,2.2-0.1l6.7,4.2c0.4,0.2,0.8,0.4,1.3,0.4 c0.5,0,1-0.1,1.3-0.4l6.7-4.2c0.8-0.6,1.3-0.8,2,0.1l0.7,0.8c0.5,0.8,0.2,1.6-0.4,2.2l-8.8,7.2c-1,0.7-1.9,0.7-2.9,0.1 L442.1,55.9z M443.7,104.8c-1.2,0-1.8-0.7-1.8-2.1V69.4c0-1,0.5-1.8,1.5-1.8H461c1.1,0,1.6,0.7,1.6,1.6v3.1 c0,1.1-0.5,1.6-1.6,1.6H450c-1.4,0-1.8,0.5-1.8,1.8v5.9c0,1,0.5,1.5,1.6,1.5h7.3c1.1,0,1.7,0.4,1.7,1.4v3.2 c0,0.7-0.4,1.4-1.6,1.4h-7.1c-1,0-1.9,0.4-1.9,1.9v5.6c0,0.9,0.4,1.8,1.8,1.8h10.7c1.2,0,1.9,0.5,1.9,1.3v3.5 c0,0.8-0.5,1.5-1.6,1.5H443.7z"></path> </g> </g> <g> <g> <path class="st0" d="M53.8,103.4c-0.2,1-0.8,1.4-1.8,1.4h-2.9c-0.9,0-1.5-0.4-1.7-1.4L37.1,69.6c-0.3-1.1,0.1-1.5,0.9-1.8l3.3-1 c1-0.2,1.5,0,1.6,0.7l7.2,24.1c0.4,1.2,1.1,1.3,1.4,0l5.7-22.8c0.2-0.8,0.7-1.2,1.3-1.2h4.2c0.7,0,1.2,0.4,1.3,1.1l5.7,22.7 c0.1,0.6,0.3,0.9,0.7,0.9c0.4,0,0.6-0.3,0.7-0.9l7.3-23.9c0.1-0.7,0.7-1,1.6-0.8l3.3,1.1c0.9,0.2,1.2,0.9,0.9,1.9l-10.3,33.7 c-0.3,0.9-0.7,1.5-1.8,1.5h-2.9c-1.1,0-1.6-0.6-1.8-1.4l-5.7-22.6c-0.3-1.1-1.7-1.3-2-0.1L53.8,103.4z"></path> <path class="st0" d="M91.1,104.8c-1.2,0-1.8-0.7-1.8-2.1V69.4c0-1,0.5-1.8,1.5-1.8h17.6c1.1,0,1.6,0.7,1.6,1.6v3.1 c0,1.1-0.5,1.6-1.6,1.6H97.3c-1.4,0-1.8,0.5-1.8,1.8v5.9c0,1,0.5,1.5,1.6,1.5h7.3c1.1,0,1.7,0.4,1.7,1.4v3.2 c0,0.7-0.4,1.4-1.6,1.4h-7.1c-1,0-1.9,0.4-1.9,1.9v5.6c0,0.9,0.4,1.8,1.8,1.8H108c1.2,0,1.9,0.5,1.9,1.3v3.5 c0,0.8-0.5,1.5-1.6,1.5H91.1z"></path> <path class="st0" d="M117.2,104.8c-0.8,0-1.3-0.4-1.3-1.3V69c0-0.7,0.5-1.3,1.1-1.3h10.4c5.9,0,10.9,3.9,10.9,9.8 c0,3.5-1.8,6.2-4.5,7.7c-0.8,0.5-0.8,1,0,1.4c2.9,1.3,5.3,3.9,5.3,8c0,5.5-4.4,10.2-10.9,10.2H117.2z M123.1,73.5 c-0.6,0-1.2,0.3-1.2,1.2v7.1c0,0.7,0.5,1.3,1.3,1.3h4c3.2,0,5-2.1,5-5c0-3-2-4.7-4.9-4.7H123.1z M123.3,89.2 c-1,0-1.4,0.4-1.4,1.2v7.2c0,1,0.4,1.4,1.1,1.4h4.9c3.2,0,5.1-2.1,5.1-5c0-3-2.4-4.8-5.1-4.8H123.3z"></path> <path class="st0" d="M156.7,86.9c-0.4,0.7-0.5,1.9-0.5,3.1v13.2c0,1.1-0.5,1.7-1.5,1.7h-3.4c-0.8,0-1.3-0.6-1.3-1.7v-13 c0-1.5,0-2.4-0.5-3.2l-9.3-16.1c-0.5-0.9-0.4-1.7,0.5-2.2l3-1.6c0.8-0.4,1.5-0.3,1.9,0.5l6.1,11.6c0.4,0.8,0.9,1.3,1.4,1.3 c0.5,0,1-0.4,1.4-1.3l6-11.6c0.3-0.7,1.2-0.9,1.9-0.5l3,1.6c0.9,0.5,1,1.3,0.5,2.2L156.7,86.9z"></path> </g> </g> <g> <path class="st0" d="M238,41.6l-10.5,80.3c-0.2,1.6-1.7,2.8-3.3,2.7l-19.9-1.6l-9.9,23.7l0,0c-0.2,0.6-0.7,1.1-1.2,1.5 c-0.5,0.3-1.1,0.5-1.6,0.5c-0.8,0-1.5-0.3-2.1-0.8L162.3,122l-30.2,3.1c-0.1,0-0.2,0-0.3,0c-1.2,0-2.4-0.8-2.9-1.9 c-0.5-1.3-0.1-2.7,1-3.6L233,38.8c1-0.8,2.3-0.9,3.4-0.2C237.5,39.2,238.1,40.4,238,41.6z"></path> <path class="st1" d="M185.2,135.3l-4.9-16.2c-0.3-0.9-0.1-1.8,0.4-2.6l17.2-26.6l-30.1,28.9L185.2,135.3z"></path> <polygon class="st2" points="197.8,122.4 187.5,121.6 192,136.4 "></polygon> <path class="st2" d="M230.9,48.3L142,117.8l20-2l50.7-48.7c1.1-1.1,2.9-1.2,4.1-0.2c1.2,1,1.5,2.7,0.6,4l-28.8,44.5l33.1,2.7 L230.9,48.3z"></path> <path class="st0" d="M152.4,144.6l6.2-7.4c1.1-1.3,0.9-3.2-0.4-4.3c-1.3-1.1-3.2-0.9-4.3,0.4l-6.2,7.4c-1.1,1.3-0.9,3.2,0.4,4.3 c0.6,0.5,1.3,0.7,2,0.7C150.9,145.7,151.8,145.3,152.4,144.6z"></path> <path class="st0" d="M212.5,155.8l2.1-9.4c0.4-1.7-0.7-3.3-2.3-3.7c-1.7-0.4-3.3,0.7-3.7,2.3l-2.1,9.4c-0.4,1.7,0.7,3.3,2.3,3.7 c0.2,0.1,0.5,0.1,0.7,0.1C210.9,158.2,212.1,157.2,212.5,155.8z"></path> <path class="st0" d="M173.5,162.7l4.5-8.5c0.8-1.5,0.2-3.4-1.3-4.2c-1.5-0.8-3.4-0.2-4.2,1.3l-4.5,8.5c-0.8,1.5-0.2,3.4,1.3,4.2 c0.5,0.2,1,0.4,1.4,0.4C171.9,164.3,173,163.7,173.5,162.7z"></path> </g> </g> </svg> 